<mxfile host="Electron" agent="Mozilla/5.0 (Windows NT 10.0; Win64; x64) AppleWebKit/537.36 (KHTML, like Gecko) draw.io/26.1.1 Chrome/132.0.6834.210 Electron/34.3.3 Safari/537.36" version="26.1.1">
  <diagram name="Page-1" id="jbIK9IY9iZR1UO6NMatq">
    <mxGraphModel dx="1480" dy="1003" grid="1" gridSize="10" guides="1" tooltips="1" connect="1" arrows="1" fold="1" page="1" pageScale="1" pageWidth="850" pageHeight="1100" math="0" shadow="0">
      <root>
        <mxCell id="0" />
        <mxCell id="1" parent="0" />
        <mxCell id="kPSvxtkj5M932OBf4cEH-3" value="" style="rounded=0;whiteSpace=wrap;html=1;fillColor=none;dashed=1;" vertex="1" parent="1">
          <mxGeometry x="37" y="200" width="120" height="480" as="geometry" />
        </mxCell>
        <mxCell id="kPSvxtkj5M932OBf4cEH-4" value="" style="rounded=0;whiteSpace=wrap;html=1;fillColor=none;dashed=1;" vertex="1" parent="1">
          <mxGeometry x="180" y="200" width="480" height="480" as="geometry" />
        </mxCell>
        <mxCell id="kPSvxtkj5M932OBf4cEH-5" value="" style="rounded=0;whiteSpace=wrap;html=1;fillColor=none;dashed=1;" vertex="1" parent="1">
          <mxGeometry x="684" y="200" width="120" height="480" as="geometry" />
        </mxCell>
        <mxCell id="kPSvxtkj5M932OBf4cEH-6" value="" style="rounded=0;whiteSpace=wrap;html=1;fillColor=none;strokeColor=light-dark(#FFB570,#EDEDED);" vertex="1" parent="1">
          <mxGeometry x="190" y="260" width="140" height="400" as="geometry" />
        </mxCell>
        <mxCell id="kPSvxtkj5M932OBf4cEH-8" value="&lt;b&gt;BRONZE&lt;/b&gt;" style="rounded=0;whiteSpace=wrap;html=1;fillColor=#ffe6cc;strokeColor=#d79b00;" vertex="1" parent="1">
          <mxGeometry x="190" y="221" width="140" height="30" as="geometry" />
        </mxCell>
        <mxCell id="kPSvxtkj5M932OBf4cEH-9" value="" style="rounded=0;whiteSpace=wrap;html=1;fillColor=none;strokeColor=#666666;fontColor=#333333;" vertex="1" parent="1">
          <mxGeometry x="350" y="260" width="140" height="400" as="geometry" />
        </mxCell>
        <mxCell id="kPSvxtkj5M932OBf4cEH-10" value="&lt;b&gt;SILVER&lt;/b&gt;" style="rounded=0;whiteSpace=wrap;html=1;fillColor=#f5f5f5;strokeColor=#666666;fontColor=#333333;" vertex="1" parent="1">
          <mxGeometry x="350" y="221" width="140" height="30" as="geometry" />
        </mxCell>
        <mxCell id="kPSvxtkj5M932OBf4cEH-11" value="" style="rounded=0;whiteSpace=wrap;html=1;fillColor=none;strokeColor=#d6b656;" vertex="1" parent="1">
          <mxGeometry x="510" y="260" width="140" height="400" as="geometry" />
        </mxCell>
        <mxCell id="kPSvxtkj5M932OBf4cEH-12" value="&lt;b&gt;GOLD&lt;/b&gt;" style="rounded=0;whiteSpace=wrap;html=1;fillColor=#fff2cc;strokeColor=#d6b656;" vertex="1" parent="1">
          <mxGeometry x="510" y="221" width="140" height="30" as="geometry" />
        </mxCell>
        <mxCell id="kPSvxtkj5M932OBf4cEH-13" value="&lt;b&gt;SOURCES&lt;/b&gt;" style="rounded=0;whiteSpace=wrap;html=1;strokeColor=none;" vertex="1" parent="1">
          <mxGeometry x="47" y="184" width="100" height="30" as="geometry" />
        </mxCell>
        <mxCell id="kPSvxtkj5M932OBf4cEH-14" value="&lt;b&gt;DATA WAREHOUSE&lt;/b&gt;" style="rounded=0;whiteSpace=wrap;html=1;strokeColor=none;" vertex="1" parent="1">
          <mxGeometry x="357" y="184" width="120" height="30" as="geometry" />
        </mxCell>
        <mxCell id="kPSvxtkj5M932OBf4cEH-15" value="&lt;b&gt;CONSUME&lt;/b&gt;" style="rounded=0;whiteSpace=wrap;html=1;strokeColor=none;" vertex="1" parent="1">
          <mxGeometry x="695" y="184" width="100" height="30" as="geometry" />
        </mxCell>
        <mxCell id="kPSvxtkj5M932OBf4cEH-16" value="CRM" style="image;aspect=fixed;html=1;points=[];align=center;fontSize=12;image=img/lib/azure2/general/Folder_Blank.svg;" vertex="1" parent="1">
          <mxGeometry x="78.52" y="290" width="36.96" height="30" as="geometry" />
        </mxCell>
        <mxCell id="kPSvxtkj5M932OBf4cEH-17" value="ERP" style="image;aspect=fixed;html=1;points=[];align=center;fontSize=12;image=img/lib/azure2/general/Folder_Blank.svg;" vertex="1" parent="1">
          <mxGeometry x="78.52" y="370" width="36.96" height="30" as="geometry" />
        </mxCell>
        <mxCell id="kPSvxtkj5M932OBf4cEH-19" value="" style="image;aspect=fixed;html=1;points=[];align=center;fontSize=12;image=img/lib/azure2/general/Files.svg;" vertex="1" parent="1">
          <mxGeometry x="106" y="300" width="24" height="26.25" as="geometry" />
        </mxCell>
        <mxCell id="kPSvxtkj5M932OBf4cEH-20" value="" style="image;aspect=fixed;html=1;points=[];align=center;fontSize=12;image=img/lib/azure2/general/Files.svg;" vertex="1" parent="1">
          <mxGeometry x="106" y="386.88" width="24" height="26.25" as="geometry" />
        </mxCell>
        <mxCell id="kPSvxtkj5M932OBf4cEH-21" value="" style="verticalLabelPosition=bottom;shadow=0;dashed=0;align=center;html=1;verticalAlign=top;strokeWidth=1;shape=mxgraph.mockup.markup.line;strokeColor=#999999;" vertex="1" parent="1">
          <mxGeometry x="47" y="430" width="100" height="20" as="geometry" />
        </mxCell>
        <mxCell id="kPSvxtkj5M932OBf4cEH-23" value="&lt;font style=&quot;font-size: 9px;&quot;&gt;&lt;b style=&quot;&quot;&gt;Object Type: &lt;/b&gt;CSV Files&lt;/font&gt;" style="rounded=0;whiteSpace=wrap;html=1;fillColor=none;strokeColor=none;" vertex="1" parent="1">
          <mxGeometry x="37" y="460" width="120" height="30" as="geometry" />
        </mxCell>
        <mxCell id="kPSvxtkj5M932OBf4cEH-24" value="&lt;font style=&quot;font-size: 9px;&quot;&gt;&lt;b style=&quot;&quot;&gt;Interface: &lt;/b&gt;Files in Folders&lt;/font&gt;" style="rounded=0;whiteSpace=wrap;html=1;fillColor=none;strokeColor=none;" vertex="1" parent="1">
          <mxGeometry x="37" y="490" width="120" height="30" as="geometry" />
        </mxCell>
        <mxCell id="kPSvxtkj5M932OBf4cEH-25" value="" style="shape=datastore;whiteSpace=wrap;html=1;fillColor=#ffe6cc;strokeColor=#d79b00;" vertex="1" parent="1">
          <mxGeometry x="240" y="300" width="40" height="50" as="geometry" />
        </mxCell>
        <mxCell id="kPSvxtkj5M932OBf4cEH-26" value="" style="verticalLabelPosition=bottom;shadow=0;dashed=0;align=center;html=1;verticalAlign=top;strokeWidth=1;shape=mxgraph.mockup.markup.line;strokeColor=#d79b00;fillColor=#ffe6cc;" vertex="1" parent="1">
          <mxGeometry x="210" y="393.13" width="100" height="20" as="geometry" />
        </mxCell>
        <mxCell id="kPSvxtkj5M932OBf4cEH-27" value="&lt;div style=&quot;text-align: left;&quot;&gt;&lt;font style=&quot;font-size: 9px;&quot;&gt;&lt;b style=&quot;background-color: transparent; color: light-dark(rgb(0, 0, 0), rgb(255, 255, 255));&quot;&gt;Object Type: &lt;/b&gt;&lt;span style=&quot;background-color: transparent; color: light-dark(rgb(0, 0, 0), rgb(255, 255, 255));&quot;&gt;Tables&lt;/span&gt;&lt;/font&gt;&lt;/div&gt;&lt;div style=&quot;text-align: left;&quot;&gt;&lt;font style=&quot;font-size: 9px;&quot;&gt;&lt;br&gt;&lt;b style=&quot;&quot;&gt;Load:&lt;/b&gt;&lt;br&gt;&lt;ul style=&quot;&quot;&gt;&lt;li style=&quot;&quot;&gt;&lt;font style=&quot;&quot;&gt;Batch processing&lt;/font&gt;&lt;/li&gt;&lt;li style=&quot;&quot;&gt;&lt;font style=&quot;&quot;&gt;Full load&lt;/font&gt;&lt;/li&gt;&lt;li style=&quot;&quot;&gt;&lt;font style=&quot;&quot;&gt;Truncate &amp;amp; Insert&lt;/font&gt;&lt;/li&gt;&lt;/ul&gt;&lt;div&gt;&lt;b&gt;No Transformation&lt;/b&gt;&lt;/div&gt;&lt;div&gt;&lt;b&gt;&lt;br&gt;&lt;/b&gt;&lt;/div&gt;&lt;div&gt;&lt;b&gt;Data Model: &lt;/b&gt;None (as-is)&lt;/div&gt;&lt;div&gt;&lt;br&gt;&lt;/div&gt;&lt;/font&gt;&lt;/div&gt;" style="rounded=0;whiteSpace=wrap;html=1;fillColor=none;strokeColor=none;" vertex="1" parent="1">
          <mxGeometry x="200" y="476" width="120" height="30" as="geometry" />
        </mxCell>
        <mxCell id="kPSvxtkj5M932OBf4cEH-28" value="&lt;font size=&quot;1&quot;&gt;&lt;b&gt;RAW DATA&lt;/b&gt;&lt;/font&gt;" style="rounded=0;whiteSpace=wrap;html=1;fillColor=none;strokeColor=none;" vertex="1" parent="1">
          <mxGeometry x="200" y="356.88" width="120" height="30" as="geometry" />
        </mxCell>
        <mxCell id="kPSvxtkj5M932OBf4cEH-30" value="&lt;font style=&quot;font-size: 9px;&quot;&gt;Stored Procedures&lt;/font&gt;" style="rounded=0;whiteSpace=wrap;html=1;fillColor=none;strokeColor=none;" vertex="1" parent="1">
          <mxGeometry x="201" y="255" width="120" height="30" as="geometry" />
        </mxCell>
        <mxCell id="kPSvxtkj5M932OBf4cEH-31" value="" style="shape=singleArrow;direction=south;whiteSpace=wrap;html=1;strokeColor=#6c8ebf;fillColor=#dae8fc;" vertex="1" parent="1">
          <mxGeometry x="255.5" y="280" width="9" height="30" as="geometry" />
        </mxCell>
        <mxCell id="kPSvxtkj5M932OBf4cEH-32" value="" style="shape=datastore;whiteSpace=wrap;html=1;fillColor=#f5f5f5;strokeColor=#666666;fontColor=#333333;" vertex="1" parent="1">
          <mxGeometry x="399" y="300" width="40" height="50" as="geometry" />
        </mxCell>
        <mxCell id="kPSvxtkj5M932OBf4cEH-33" value="" style="verticalLabelPosition=bottom;shadow=0;dashed=0;align=center;html=1;verticalAlign=top;strokeWidth=1;shape=mxgraph.mockup.markup.line;strokeColor=#666666;fillColor=#f5f5f5;fontColor=#333333;" vertex="1" parent="1">
          <mxGeometry x="369" y="393.13" width="100" height="20" as="geometry" />
        </mxCell>
        <mxCell id="kPSvxtkj5M932OBf4cEH-34" value="&lt;div style=&quot;text-align: left;&quot;&gt;&lt;font style=&quot;font-size: 9px;&quot;&gt;&lt;b style=&quot;background-color: transparent; color: light-dark(rgb(0, 0, 0), rgb(255, 255, 255));&quot;&gt;Object Type: &lt;/b&gt;&lt;span style=&quot;background-color: transparent; color: light-dark(rgb(0, 0, 0), rgb(255, 255, 255));&quot;&gt;Tables&lt;/span&gt;&lt;/font&gt;&lt;/div&gt;&lt;div style=&quot;text-align: left;&quot;&gt;&lt;font style=&quot;font-size: 9px;&quot;&gt;&lt;br&gt;&lt;b style=&quot;&quot;&gt;Load:&lt;/b&gt;&lt;br&gt;&lt;ul style=&quot;&quot;&gt;&lt;li style=&quot;&quot;&gt;&lt;font style=&quot;&quot;&gt;Batch processing&lt;/font&gt;&lt;/li&gt;&lt;li style=&quot;&quot;&gt;&lt;font style=&quot;&quot;&gt;Full load&lt;/font&gt;&lt;/li&gt;&lt;li style=&quot;&quot;&gt;&lt;font style=&quot;&quot;&gt;Truncate &amp;amp; Insert&lt;/font&gt;&lt;/li&gt;&lt;/ul&gt;&lt;div&gt;&lt;b&gt;No Transformation&lt;/b&gt;&lt;/div&gt;&lt;div&gt;&lt;ul&gt;&lt;li&gt;Data cleaning&lt;/li&gt;&lt;li&gt;Data standardization&lt;/li&gt;&lt;li&gt;Data normalization&lt;/li&gt;&lt;li&gt;Derived columns&lt;/li&gt;&lt;li&gt;Data enrichments&lt;/li&gt;&lt;/ul&gt;&lt;/div&gt;&lt;div&gt;&lt;b&gt;&lt;br&gt;&lt;/b&gt;&lt;/div&gt;&lt;div&gt;&lt;b&gt;Data Model: &lt;/b&gt;None (as-is)&lt;/div&gt;&lt;div&gt;&lt;br&gt;&lt;/div&gt;&lt;/font&gt;&lt;/div&gt;" style="rounded=0;whiteSpace=wrap;html=1;fillColor=none;strokeColor=none;" vertex="1" parent="1">
          <mxGeometry x="359" y="517" width="120" height="30" as="geometry" />
        </mxCell>
        <mxCell id="kPSvxtkj5M932OBf4cEH-35" value="&lt;font size=&quot;1&quot;&gt;&lt;b&gt;CLEANED, STANDARDIZED DATA&lt;/b&gt;&lt;/font&gt;" style="rounded=0;whiteSpace=wrap;html=1;fillColor=none;strokeColor=none;" vertex="1" parent="1">
          <mxGeometry x="359" y="356.88" width="120" height="30" as="geometry" />
        </mxCell>
        <mxCell id="kPSvxtkj5M932OBf4cEH-36" value="&lt;font style=&quot;font-size: 9px;&quot;&gt;Stored Procedures&lt;/font&gt;" style="rounded=0;whiteSpace=wrap;html=1;fillColor=none;strokeColor=none;" vertex="1" parent="1">
          <mxGeometry x="360" y="255" width="120" height="30" as="geometry" />
        </mxCell>
        <mxCell id="kPSvxtkj5M932OBf4cEH-37" value="" style="shape=singleArrow;direction=south;whiteSpace=wrap;html=1;strokeColor=#d79b00;fillColor=#ffe6cc;" vertex="1" parent="1">
          <mxGeometry x="416" y="280" width="9" height="30" as="geometry" />
        </mxCell>
        <mxCell id="kPSvxtkj5M932OBf4cEH-38" value="" style="shape=datastore;whiteSpace=wrap;html=1;fillColor=#fff2cc;strokeColor=#d6b656;" vertex="1" parent="1">
          <mxGeometry x="559.5" y="300" width="40" height="50" as="geometry" />
        </mxCell>
        <mxCell id="kPSvxtkj5M932OBf4cEH-39" value="" style="verticalLabelPosition=bottom;shadow=0;dashed=0;align=center;html=1;verticalAlign=top;strokeWidth=1;shape=mxgraph.mockup.markup.line;strokeColor=#d6b656;fillColor=#fff2cc;" vertex="1" parent="1">
          <mxGeometry x="529.5" y="393.13" width="100" height="20" as="geometry" />
        </mxCell>
        <mxCell id="kPSvxtkj5M932OBf4cEH-40" value="&lt;div style=&quot;text-align: left;&quot;&gt;&lt;font style=&quot;font-size: 9px;&quot;&gt;&lt;b style=&quot;background-color: transparent; color: light-dark(rgb(0, 0, 0), rgb(255, 255, 255));&quot;&gt;Object Type: &lt;/b&gt;&lt;span style=&quot;background-color: transparent; color: light-dark(rgb(0, 0, 0), rgb(255, 255, 255));&quot;&gt;Views&lt;/span&gt;&lt;/font&gt;&lt;/div&gt;&lt;div style=&quot;text-align: left;&quot;&gt;&lt;font style=&quot;font-size: 9px;&quot;&gt;&lt;br&gt;&lt;b style=&quot;&quot;&gt;Load: &lt;/b&gt;No load&lt;/font&gt;&lt;/div&gt;&lt;div style=&quot;text-align: left;&quot;&gt;&lt;font size=&quot;1&quot;&gt;&lt;br&gt;&lt;/font&gt;&lt;font style=&quot;font-size: 9px;&quot;&gt;&lt;div&gt;&lt;b&gt;No Transformation&lt;/b&gt;&lt;/div&gt;&lt;div&gt;&lt;ul&gt;&lt;li&gt;Data integrations&lt;/li&gt;&lt;li&gt;Aggregations&lt;/li&gt;&lt;li&gt;Business logics&lt;/li&gt;&lt;/ul&gt;&lt;/div&gt;&lt;div&gt;&lt;b&gt;&lt;br&gt;&lt;/b&gt;&lt;/div&gt;&lt;div&gt;&lt;b&gt;Data Model:&amp;nbsp;&lt;/b&gt;&lt;/div&gt;&lt;div&gt;&lt;ul&gt;&lt;li&gt;Star schema&lt;/li&gt;&lt;li&gt;Flat table&lt;/li&gt;&lt;li&gt;Aggregated table&lt;/li&gt;&lt;/ul&gt;&lt;/div&gt;&lt;div&gt;&lt;br&gt;&lt;/div&gt;&lt;/font&gt;&lt;/div&gt;" style="rounded=0;whiteSpace=wrap;html=1;fillColor=none;strokeColor=none;" vertex="1" parent="1">
          <mxGeometry x="519.5" y="517" width="120" height="30" as="geometry" />
        </mxCell>
        <mxCell id="kPSvxtkj5M932OBf4cEH-41" value="&lt;font size=&quot;1&quot;&gt;&lt;b&gt;BUSINESS READY DATA&lt;/b&gt;&lt;/font&gt;" style="rounded=0;whiteSpace=wrap;html=1;fillColor=none;strokeColor=none;" vertex="1" parent="1">
          <mxGeometry x="519.5" y="356.88" width="120" height="30" as="geometry" />
        </mxCell>
        <mxCell id="kPSvxtkj5M932OBf4cEH-45" value="BI &amp;amp; Reporting" style="image;aspect=fixed;html=1;points=[];align=center;fontSize=12;image=img/lib/azure2/power_platform/PowerBI.svg;" vertex="1" parent="1">
          <mxGeometry x="727.42" y="299" width="35.16" height="46.88" as="geometry" />
        </mxCell>
        <mxCell id="kPSvxtkj5M932OBf4cEH-46" value="&lt;span style=&quot;font-weight: normal;&quot;&gt;Machine learning&lt;/span&gt;" style="sketch=0;outlineConnect=0;fontColor=#232F3E;gradientColor=none;strokeColor=#ffffff;fillColor=#232F3E;dashed=0;verticalLabelPosition=middle;verticalAlign=bottom;align=center;html=1;whiteSpace=wrap;fontSize=10;fontStyle=1;spacing=3;shape=mxgraph.aws4.productIcon;prIcon=mxgraph.aws4.sagemaker;" vertex="1" parent="1">
          <mxGeometry x="718.25" y="408" width="53.5" height="87" as="geometry" />
        </mxCell>
        <mxCell id="kPSvxtkj5M932OBf4cEH-47" value="SQL Queries" style="image;aspect=fixed;html=1;points=[];align=center;fontSize=12;image=img/lib/azure2/databases/SQL_Database.svg;" vertex="1" parent="1">
          <mxGeometry x="727.42" y="519" width="40.5" height="54" as="geometry" />
        </mxCell>
        <mxCell id="kPSvxtkj5M932OBf4cEH-48" value="" style="shape=singleArrow;whiteSpace=wrap;html=1;fillColor=#dae8fc;strokeColor=#6c8ebf;" vertex="1" parent="1">
          <mxGeometry x="132" y="326.25" width="66" height="23.75" as="geometry" />
        </mxCell>
        <mxCell id="kPSvxtkj5M932OBf4cEH-52" value="" style="shape=singleArrow;whiteSpace=wrap;html=1;fillColor=#dae8fc;strokeColor=#6c8ebf;" vertex="1" parent="1">
          <mxGeometry x="310" y="326.25" width="66" height="23.75" as="geometry" />
        </mxCell>
        <mxCell id="kPSvxtkj5M932OBf4cEH-53" value="" style="shape=singleArrow;whiteSpace=wrap;html=1;fillColor=#dae8fc;strokeColor=#6c8ebf;" vertex="1" parent="1">
          <mxGeometry x="469" y="326.25" width="66" height="23.75" as="geometry" />
        </mxCell>
        <mxCell id="kPSvxtkj5M932OBf4cEH-54" value="" style="shape=singleArrow;whiteSpace=wrap;html=1;fillColor=#dae8fc;strokeColor=#6c8ebf;" vertex="1" parent="1">
          <mxGeometry x="634.5" y="326.25" width="66" height="23.75" as="geometry" />
        </mxCell>
      </root>
    </mxGraphModel>
  </diagram>
</mxfile>
